<svg xmlns="http://www.w3.org/2000/svg" id="Capa_1" data-name="Capa 1" viewBox="0 0 174.64 101.24"><defs><style>      .cls-1 {        fill: #21325d;      }      .cls-1, .cls-2 {        stroke-width: 0px;      }      .cls-2 {        fill: #e83b3a;      }    </style></defs><g><path class="cls-1" d="M116.59,23.06l-11.95,8.51s-.04-.09-.06-.13c.34-1.27.76-2.49,1.28-3.69,1.49-3.44,3.56-6.44,6.18-8.97.26-.26.54-.52.82-.76,1.51,1.49,2.74,3.18,3.72,5.04Z"></path><path class="cls-2" d="M71.77,19.67c1.04-1.1,2.18-2.12,3.39-3.03v-5.64h-16.99l-12.36,26.8-12.27-26.8h-17.09v56.95h15.65v-30l9.53,21.09h8.36l9.53-21.09v30h15.63v-5.83c-1.1-.89-2.12-1.88-3.09-2.92-2.55-2.77-4.5-5.94-5.9-9.45-1.4-3.54-2.08-7.11-2.08-10.76s.65-6.89,1.95-10.26c1.32-3.37,3.22-6.4,5.73-9.06Z"></path><path class="cls-2" d="M105.81,51.42c-.48-1.17-.89-2.42-1.23-3.7l-.24-.15c-.48,1.28-1.14,2.36-1.97,3.26-.82.87-1.75,1.6-2.79,2.16-1.06.56-2.14.97-3.26,1.21-1.12.24-2.21.35-3.29.35-2.03,0-3.85-.41-5.49-1.25-1.62-.82-3-1.94-4.13-3.33-1.12-1.38-1.97-2.98-2.57-4.8-.58-1.82-.87-3.72-.87-5.7,0-1.77.26-3.54.76-5.34.5-1.79,1.28-3.39,2.33-4.8,1.04-1.41,2.38-2.57,4-3.44,1.64-.89,3.57-1.32,5.83-1.32,1.06,0,2.18.09,3.33.32,1.14.2,2.25.58,3.31,1.12,1.08.54,2.05,1.27,2.94,2.16.84.87,1.54,1.99,2.07,3.33.34-1.27.76-2.49,1.28-3.69,1.49-3.44,3.56-6.44,6.18-8.97.26-.26.54-.52.82-.76-1.51-1.51-3.28-2.85-5.3-3.98-4.04-2.27-8.8-3.41-14.31-3.41-4.6,0-8.69.84-12.27,2.49-2.12.97-4.04,2.12-5.77,3.46v45.49c1.81,1.47,3.8,2.74,5.97,3.78,3.5,1.68,7.35,2.51,11.58,2.51,2.4,0,4.88-.28,7.43-.87,2.53-.58,4.91-1.43,7.13-2.57,1.95-.99,3.74-2.2,5.3-3.61-.26-.22-.5-.47-.74-.71-2.51-2.51-4.52-5.6-6.01-9.23Z"></path><path class="cls-1" d="M75.16,16.63v45.49c-1.1-.89-2.12-1.88-3.09-2.92-2.55-2.77-4.5-5.94-5.9-9.45-1.4-3.54-2.08-7.11-2.08-10.76s.65-6.89,1.95-10.26c1.32-3.37,3.22-6.4,5.73-9.06,1.04-1.1,2.18-2.12,3.39-3.03Z"></path><path class="cls-2" d="M134.75,37.63v11.22h9.86c-3.46,3.74-7.48,5.62-12.02,5.62-1.97,0-3.76-.37-5.38-1.08-1.6-.73-2.98-1.75-4.11-3.05-1.15-1.32-2.05-2.87-2.7-4.69-.63-1.82-.97-3.85-.97-6.1s.34-4.21.97-6.05c.65-1.84,1.53-3.42,2.64-4.76,1.14-1.34,2.46-2.38,4.02-3.13,1.54-.76,3.26-1.14,5.14-1.14,2.51,0,4.88.69,7.13,2.05,2.25,1.36,3.93,3.16,5.04,5.42l11.63-8.9c-1.01-1.94-2.33-3.65-3.93-5.17-1.6-1.53-3.41-2.83-5.42-3.93-1.99-1.1-4.17-1.94-6.53-2.49-2.35-.56-4.8-.84-7.37-.84-4.11,0-7.97.73-11.52,2.2-3.2,1.32-6.01,3.07-8.43,5.27,1.51,1.49,2.74,3.18,3.72,5.04l-11.95,8.51s-.04-.09-.06-.13c-.65,2.38-.97,4.88-.97,7.5,0,3.15.34,6.05,1.02,8.73l12.51,7.48c-.86,2.08-2.16,3.95-3.89,5.6-.2.2-.41.39-.63.56,2.35,2.16,5.03,3.83,8.08,5.03,3.37,1.3,6.91,1.95,10.59,1.95,5.29,0,9.98-1.71,14.03-5.12v4.73h12.92v-30.32h-23.43Z"></path><path class="cls-1" d="M117.09,55.2c-.86,2.08-2.16,3.95-3.89,5.6-.2.2-.41.39-.63.56-.26-.22-.5-.47-.74-.71-2.51-2.51-4.52-5.6-6.01-9.23-.48-1.17-.89-2.42-1.23-3.7l12.51,7.48Z"></path></g><g><path class="cls-2" d="M28.26,78.61c-.49-.3-1-.56-1.53-.79-.44-.2-.94-.38-1.49-.56-.55-.17-1.09-.26-1.62-.26-.43,0-.77.07-1.03.2-.26.13-.38.35-.38.67,0,.23.07.42.22.57.15.15.36.28.64.41.28.12.62.24,1.03.36.4.12.86.26,1.37.42.81.25,1.54.52,2.19.82s1.21.65,1.67,1.05c.46.4.82.89,1.06,1.47.25.58.37,1.28.37,2.1,0,1.05-.19,1.94-.58,2.66-.39.72-.9,1.29-1.53,1.72-.63.43-1.35.74-2.15.93-.8.19-1.6.28-2.41.28-.64,0-1.3-.05-1.98-.15-.68-.1-1.35-.24-2.01-.42-.67-.18-1.31-.4-1.93-.64-.62-.25-1.19-.53-1.72-.84l2.07-4.22c.58.36,1.18.68,1.8.96.53.25,1.12.47,1.79.67.67.2,1.35.3,2.04.3.53,0,.89-.07,1.1-.21.21-.14.31-.32.31-.56,0-.25-.1-.46-.31-.63-.21-.17-.49-.32-.85-.46-.36-.13-.78-.26-1.25-.4-.47-.13-.97-.29-1.49-.47-.77-.26-1.44-.55-2-.85-.56-.3-1.02-.65-1.38-1.04-.36-.39-.63-.83-.8-1.32s-.26-1.06-.26-1.7c0-.97.18-1.83.53-2.57.35-.74.84-1.36,1.44-1.85s1.3-.87,2.09-1.12c.78-.26,1.61-.38,2.48-.38.64,0,1.27.06,1.88.19.61.12,1.2.28,1.77.47.57.19,1.1.4,1.59.62.49.22.94.43,1.33.63l-2.07,3.98Z"></path><path class="cls-2" d="M40.78,90.56c-1.33,0-2.54-.26-3.63-.77-1.09-.51-2.02-1.18-2.79-2.01-.77-.83-1.38-1.78-1.8-2.85-.43-1.07-.64-2.17-.64-3.31s.22-2.26.67-3.33c.44-1.07,1.07-2.01,1.86-2.83s1.75-1.47,2.84-1.95c1.1-.49,2.29-.73,3.59-.73s2.54.26,3.63.77c1.09.51,2.02,1.19,2.79,2.03.77.84,1.37,1.8,1.79,2.87.42,1.07.63,2.17.63,3.29s-.22,2.26-.67,3.32c-.45,1.06-1.06,2-1.85,2.82-.79.82-1.73,1.47-2.83,1.96s-2.29.74-3.59.74ZM36.81,81.67c0,.59.08,1.17.25,1.72.16.55.41,1.04.74,1.47.33.43.74.77,1.25,1.04.5.26,1.1.4,1.79.4s1.29-.14,1.8-.41c.51-.27.93-.63,1.25-1.06s.56-.93.72-1.49c.16-.56.23-1.13.23-1.7s-.08-1.16-.25-1.72c-.16-.55-.42-1.04-.75-1.46-.34-.42-.76-.76-1.26-1.01-.5-.26-1.09-.38-1.77-.38s-1.29.13-1.79.4c-.5.26-.92.61-1.25,1.05-.33.44-.57.93-.73,1.48-.16.55-.23,1.12-.23,1.69Z"></path><path class="cls-2" d="M51.77,90.41v-17.54h4.82v13.34h7.95v4.2h-12.77Z"></path><path class="cls-2" d="M73.61,86.29c.56,0,1.04-.12,1.43-.37.4-.25.72-.57.96-.98.25-.4.43-.87.54-1.4.11-.53.17-1.08.17-1.65v-9.02h4.82v9.02c0,1.22-.16,2.36-.47,3.42-.31,1.06-.8,1.98-1.46,2.75-.66.77-1.49,1.38-2.48,1.83-1,.44-2.17.67-3.52.67s-2.6-.23-3.59-.7c-1-.47-1.82-1.1-2.46-1.89-.64-.79-1.11-1.71-1.41-2.75-.3-1.05-.44-2.15-.44-3.32v-9.02h4.82v9.02c0,.58.06,1.13.17,1.67.11.54.3,1,.54,1.41.25.4.56.72.95.96s.86.36,1.42.36Z"></path><path class="cls-2" d="M97.97,77.07h-5.04v13.34h-4.82v-13.34h-5.06v-4.2h14.92v4.2Z"></path><path class="cls-2" d="M99.72,90.41v-17.54h4.82v17.54h-4.82Z"></path><path class="cls-2" d="M115.45,90.56c-1.33,0-2.54-.26-3.63-.77-1.09-.51-2.02-1.18-2.79-2.01-.77-.83-1.38-1.78-1.8-2.85-.43-1.07-.64-2.17-.64-3.31s.22-2.26.67-3.33c.44-1.07,1.07-2.01,1.86-2.83s1.75-1.47,2.84-1.95c1.1-.49,2.29-.73,3.59-.73s2.54.26,3.63.77c1.09.51,2.02,1.19,2.79,2.03.77.84,1.37,1.8,1.79,2.87.42,1.07.63,2.17.63,3.29s-.22,2.26-.67,3.32c-.45,1.06-1.06,2-1.85,2.82-.79.82-1.73,1.47-2.83,1.96s-2.29.74-3.59.74ZM111.48,81.67c0,.59.08,1.17.25,1.72.16.55.41,1.04.74,1.47.33.43.74.77,1.25,1.04.5.26,1.1.4,1.79.4s1.29-.14,1.8-.41c.51-.27.93-.63,1.25-1.06s.56-.93.72-1.49c.16-.56.23-1.13.23-1.7s-.08-1.16-.25-1.72c-.16-.55-.42-1.04-.75-1.46-.34-.42-.76-.76-1.26-1.01-.5-.26-1.09-.38-1.77-.38s-1.29.13-1.79.4c-.5.26-.92.61-1.25,1.05-.33.44-.57.93-.73,1.48-.16.55-.23,1.12-.23,1.69Z"></path><path class="cls-2" d="M131.26,81.79v8.62h-4.82v-17.54h3.75l7.04,8.92v-8.92h4.82v17.54h-3.83l-6.97-8.62Z"></path><path class="cls-2" d="M155.69,78.61c-.49-.3-1-.56-1.53-.79-.44-.2-.94-.38-1.49-.56-.55-.17-1.09-.26-1.62-.26-.43,0-.77.07-1.03.2-.26.13-.38.35-.38.67,0,.23.07.42.22.57.15.15.36.28.64.41.28.12.62.24,1.03.36.4.12.86.26,1.37.42.81.25,1.54.52,2.19.82s1.21.65,1.67,1.05c.46.4.82.89,1.06,1.47.25.58.37,1.28.37,2.1,0,1.05-.19,1.94-.58,2.66-.39.72-.9,1.29-1.53,1.72-.63.43-1.35.74-2.15.93-.8.19-1.6.28-2.41.28-.64,0-1.3-.05-1.98-.15-.68-.1-1.35-.24-2.01-.42-.67-.18-1.31-.4-1.93-.64-.62-.25-1.19-.53-1.72-.84l2.07-4.22c.58.36,1.18.68,1.8.96.53.25,1.12.47,1.79.67.67.2,1.35.3,2.04.3.53,0,.89-.07,1.1-.21.21-.14.31-.32.31-.56,0-.25-.1-.46-.31-.63-.21-.17-.49-.32-.85-.46-.36-.13-.78-.26-1.25-.4-.47-.13-.97-.29-1.49-.47-.77-.26-1.44-.55-2-.85-.56-.3-1.02-.65-1.38-1.04-.36-.39-.63-.83-.8-1.32s-.26-1.06-.26-1.7c0-.97.18-1.83.53-2.57.35-.74.84-1.36,1.44-1.85s1.3-.87,2.09-1.12c.78-.26,1.61-.38,2.48-.38.64,0,1.27.06,1.88.19.61.12,1.2.28,1.77.47.57.19,1.1.4,1.59.62.49.22.94.43,1.33.63l-2.07,3.98Z"></path></g></svg>